G04 #@! TF.FileFunction,Paste,Bot*
%FSLAX46Y46*%
G04 Gerber Fmt 4.6, Leading zero omitted, Abs format (unit mm)*
G04 Created by KiCad (PCBNEW 4.0.7) date Tuesday, October 31, 2017 'AMt' 08:43:51 AM*
%MOMM*%
%LPD*%
G01*
G04 APERTURE LIST*
%ADD10C,0.100000*%
%ADD11R,0.400000X0.600000*%
%ADD12O,0.670000X1.100000*%
G04 APERTURE END LIST*
D10*
D11*
X123386000Y-69342000D03*
X122486000Y-69342000D03*
X123386000Y-76708000D03*
X122486000Y-76708000D03*
X123132000Y-85090000D03*
X122232000Y-85090000D03*
X123132000Y-91948000D03*
X122232000Y-91948000D03*
D12*
X104125000Y-65940000D03*
X105425000Y-65940000D03*
X104775000Y-67410000D03*
X104125000Y-73560000D03*
X105425000Y-73560000D03*
X104775000Y-75030000D03*
X104125000Y-81180000D03*
X105425000Y-81180000D03*
X104775000Y-82650000D03*
X104125000Y-88800000D03*
X105425000Y-88800000D03*
X104775000Y-90270000D03*
X93965000Y-68480000D03*
X95265000Y-68480000D03*
X94615000Y-69950000D03*
X93965000Y-76100000D03*
X95265000Y-76100000D03*
X94615000Y-77570000D03*
X93965000Y-83720000D03*
X95265000Y-83720000D03*
X94615000Y-85190000D03*
X93965000Y-91340000D03*
X95265000Y-91340000D03*
X94615000Y-92810000D03*
X114920000Y-65940000D03*
X116220000Y-65940000D03*
X115570000Y-67410000D03*
X114920000Y-73560000D03*
X116220000Y-73560000D03*
X115570000Y-75030000D03*
X114920000Y-81180000D03*
X116220000Y-81180000D03*
X115570000Y-82650000D03*
X114920000Y-88800000D03*
X116220000Y-88800000D03*
X115570000Y-90270000D03*
M02*
