G04 #@! TF.FileFunction,Legend,Bot*
%FSLAX46Y46*%
G04 Gerber Fmt 4.6, Leading zero omitted, Abs format (unit mm)*
G04 Created by KiCad (PCBNEW 4.0.7) date Tuesday, October 31, 2017 'AMt' 08:43:51 AM*
%MOMM*%
%LPD*%
G01*
G04 APERTURE LIST*
%ADD10C,0.100000*%
%ADD11C,0.120000*%
%ADD12C,0.150000*%
G04 APERTURE END LIST*
D10*
D11*
X122686000Y-68812000D02*
X123186000Y-68812000D01*
X123186000Y-69872000D02*
X122686000Y-69872000D01*
X122686000Y-76178000D02*
X123186000Y-76178000D01*
X123186000Y-77238000D02*
X122686000Y-77238000D01*
X122432000Y-84560000D02*
X122932000Y-84560000D01*
X122932000Y-85620000D02*
X122432000Y-85620000D01*
X122432000Y-91418000D02*
X122932000Y-91418000D01*
X122932000Y-92478000D02*
X122432000Y-92478000D01*
X105275000Y-67410000D02*
X105935000Y-67410000D01*
X103605000Y-67410000D02*
X104275000Y-67410000D01*
X103615000Y-67410000D02*
X103615000Y-64675000D01*
X105935000Y-66000000D02*
X105935000Y-67410000D01*
X105275000Y-75030000D02*
X105935000Y-75030000D01*
X103605000Y-75030000D02*
X104275000Y-75030000D01*
X103615000Y-75030000D02*
X103615000Y-72295000D01*
X105935000Y-73620000D02*
X105935000Y-75030000D01*
X105275000Y-82650000D02*
X105935000Y-82650000D01*
X103605000Y-82650000D02*
X104275000Y-82650000D01*
X103615000Y-82650000D02*
X103615000Y-79915000D01*
X105935000Y-81240000D02*
X105935000Y-82650000D01*
X105275000Y-90270000D02*
X105935000Y-90270000D01*
X103605000Y-90270000D02*
X104275000Y-90270000D01*
X103615000Y-90270000D02*
X103615000Y-87535000D01*
X105935000Y-88860000D02*
X105935000Y-90270000D01*
X95115000Y-69950000D02*
X95775000Y-69950000D01*
X93445000Y-69950000D02*
X94115000Y-69950000D01*
X93455000Y-69950000D02*
X93455000Y-67215000D01*
X95775000Y-68540000D02*
X95775000Y-69950000D01*
X95115000Y-77570000D02*
X95775000Y-77570000D01*
X93445000Y-77570000D02*
X94115000Y-77570000D01*
X93455000Y-77570000D02*
X93455000Y-74835000D01*
X95775000Y-76160000D02*
X95775000Y-77570000D01*
X95115000Y-85190000D02*
X95775000Y-85190000D01*
X93445000Y-85190000D02*
X94115000Y-85190000D01*
X93455000Y-85190000D02*
X93455000Y-82455000D01*
X95775000Y-83780000D02*
X95775000Y-85190000D01*
X95115000Y-92810000D02*
X95775000Y-92810000D01*
X93445000Y-92810000D02*
X94115000Y-92810000D01*
X93455000Y-92810000D02*
X93455000Y-90075000D01*
X95775000Y-91400000D02*
X95775000Y-92810000D01*
X116070000Y-67410000D02*
X116730000Y-67410000D01*
X114400000Y-67410000D02*
X115070000Y-67410000D01*
X114410000Y-67410000D02*
X114410000Y-64675000D01*
X116730000Y-66000000D02*
X116730000Y-67410000D01*
X116070000Y-75030000D02*
X116730000Y-75030000D01*
X114400000Y-75030000D02*
X115070000Y-75030000D01*
X114410000Y-75030000D02*
X114410000Y-72295000D01*
X116730000Y-73620000D02*
X116730000Y-75030000D01*
X116070000Y-82650000D02*
X116730000Y-82650000D01*
X114400000Y-82650000D02*
X115070000Y-82650000D01*
X114410000Y-82650000D02*
X114410000Y-79915000D01*
X116730000Y-81240000D02*
X116730000Y-82650000D01*
X116070000Y-90270000D02*
X116730000Y-90270000D01*
X114400000Y-90270000D02*
X115070000Y-90270000D01*
X114410000Y-90270000D02*
X114410000Y-87535000D01*
X116730000Y-88860000D02*
X116730000Y-90270000D01*
D12*
X123102666Y-68444381D02*
X123436000Y-67968190D01*
X123674095Y-68444381D02*
X123674095Y-67444381D01*
X123293142Y-67444381D01*
X123197904Y-67492000D01*
X123150285Y-67539619D01*
X123102666Y-67634857D01*
X123102666Y-67777714D01*
X123150285Y-67872952D01*
X123197904Y-67920571D01*
X123293142Y-67968190D01*
X123674095Y-67968190D01*
X122245523Y-67777714D02*
X122245523Y-68444381D01*
X122483619Y-67396762D02*
X122721714Y-68111048D01*
X122102666Y-68111048D01*
X123102666Y-75810381D02*
X123436000Y-75334190D01*
X123674095Y-75810381D02*
X123674095Y-74810381D01*
X123293142Y-74810381D01*
X123197904Y-74858000D01*
X123150285Y-74905619D01*
X123102666Y-75000857D01*
X123102666Y-75143714D01*
X123150285Y-75238952D01*
X123197904Y-75286571D01*
X123293142Y-75334190D01*
X123674095Y-75334190D01*
X122769333Y-74810381D02*
X122150285Y-74810381D01*
X122483619Y-75191333D01*
X122340761Y-75191333D01*
X122245523Y-75238952D01*
X122197904Y-75286571D01*
X122150285Y-75381810D01*
X122150285Y-75619905D01*
X122197904Y-75715143D01*
X122245523Y-75762762D01*
X122340761Y-75810381D01*
X122626476Y-75810381D01*
X122721714Y-75762762D01*
X122769333Y-75715143D01*
X122848666Y-84192381D02*
X123182000Y-83716190D01*
X123420095Y-84192381D02*
X123420095Y-83192381D01*
X123039142Y-83192381D01*
X122943904Y-83240000D01*
X122896285Y-83287619D01*
X122848666Y-83382857D01*
X122848666Y-83525714D01*
X122896285Y-83620952D01*
X122943904Y-83668571D01*
X123039142Y-83716190D01*
X123420095Y-83716190D01*
X122467714Y-83287619D02*
X122420095Y-83240000D01*
X122324857Y-83192381D01*
X122086761Y-83192381D01*
X121991523Y-83240000D01*
X121943904Y-83287619D01*
X121896285Y-83382857D01*
X121896285Y-83478095D01*
X121943904Y-83620952D01*
X122515333Y-84192381D01*
X121896285Y-84192381D01*
X122848666Y-91050381D02*
X123182000Y-90574190D01*
X123420095Y-91050381D02*
X123420095Y-90050381D01*
X123039142Y-90050381D01*
X122943904Y-90098000D01*
X122896285Y-90145619D01*
X122848666Y-90240857D01*
X122848666Y-90383714D01*
X122896285Y-90478952D01*
X122943904Y-90526571D01*
X123039142Y-90574190D01*
X123420095Y-90574190D01*
X121896285Y-91050381D02*
X122467714Y-91050381D01*
X122182000Y-91050381D02*
X122182000Y-90050381D01*
X122277238Y-90193238D01*
X122372476Y-90288476D01*
X122467714Y-90336095D01*
X103322619Y-66103572D02*
X103275000Y-66008334D01*
X103179762Y-65913096D01*
X103036905Y-65770239D01*
X102989286Y-65675000D01*
X102989286Y-65579762D01*
X103227381Y-65627381D02*
X103179762Y-65532143D01*
X103084524Y-65436905D01*
X102894048Y-65389286D01*
X102560714Y-65389286D01*
X102370238Y-65436905D01*
X102275000Y-65532143D01*
X102227381Y-65627381D01*
X102227381Y-65817858D01*
X102275000Y-65913096D01*
X102370238Y-66008334D01*
X102560714Y-66055953D01*
X102894048Y-66055953D01*
X103084524Y-66008334D01*
X103179762Y-65913096D01*
X103227381Y-65817858D01*
X103227381Y-65627381D01*
X102322619Y-66436905D02*
X102275000Y-66484524D01*
X102227381Y-66579762D01*
X102227381Y-66817858D01*
X102275000Y-66913096D01*
X102322619Y-66960715D01*
X102417857Y-67008334D01*
X102513095Y-67008334D01*
X102655952Y-66960715D01*
X103227381Y-66389286D01*
X103227381Y-67008334D01*
X102227381Y-67627381D02*
X102227381Y-67722620D01*
X102275000Y-67817858D01*
X102322619Y-67865477D01*
X102417857Y-67913096D01*
X102608333Y-67960715D01*
X102846429Y-67960715D01*
X103036905Y-67913096D01*
X103132143Y-67865477D01*
X103179762Y-67817858D01*
X103227381Y-67722620D01*
X103227381Y-67627381D01*
X103179762Y-67532143D01*
X103132143Y-67484524D01*
X103036905Y-67436905D01*
X102846429Y-67389286D01*
X102608333Y-67389286D01*
X102417857Y-67436905D01*
X102322619Y-67484524D01*
X102275000Y-67532143D01*
X102227381Y-67627381D01*
X103322619Y-73723572D02*
X103275000Y-73628334D01*
X103179762Y-73533096D01*
X103036905Y-73390239D01*
X102989286Y-73295000D01*
X102989286Y-73199762D01*
X103227381Y-73247381D02*
X103179762Y-73152143D01*
X103084524Y-73056905D01*
X102894048Y-73009286D01*
X102560714Y-73009286D01*
X102370238Y-73056905D01*
X102275000Y-73152143D01*
X102227381Y-73247381D01*
X102227381Y-73437858D01*
X102275000Y-73533096D01*
X102370238Y-73628334D01*
X102560714Y-73675953D01*
X102894048Y-73675953D01*
X103084524Y-73628334D01*
X103179762Y-73533096D01*
X103227381Y-73437858D01*
X103227381Y-73247381D01*
X103227381Y-74628334D02*
X103227381Y-74056905D01*
X103227381Y-74342619D02*
X102227381Y-74342619D01*
X102370238Y-74247381D01*
X102465476Y-74152143D01*
X102513095Y-74056905D01*
X103227381Y-75104524D02*
X103227381Y-75295000D01*
X103179762Y-75390239D01*
X103132143Y-75437858D01*
X102989286Y-75533096D01*
X102798810Y-75580715D01*
X102417857Y-75580715D01*
X102322619Y-75533096D01*
X102275000Y-75485477D01*
X102227381Y-75390239D01*
X102227381Y-75199762D01*
X102275000Y-75104524D01*
X102322619Y-75056905D01*
X102417857Y-75009286D01*
X102655952Y-75009286D01*
X102751190Y-75056905D01*
X102798810Y-75104524D01*
X102846429Y-75199762D01*
X102846429Y-75390239D01*
X102798810Y-75485477D01*
X102751190Y-75533096D01*
X102655952Y-75580715D01*
X103322619Y-81343572D02*
X103275000Y-81248334D01*
X103179762Y-81153096D01*
X103036905Y-81010239D01*
X102989286Y-80915000D01*
X102989286Y-80819762D01*
X103227381Y-80867381D02*
X103179762Y-80772143D01*
X103084524Y-80676905D01*
X102894048Y-80629286D01*
X102560714Y-80629286D01*
X102370238Y-80676905D01*
X102275000Y-80772143D01*
X102227381Y-80867381D01*
X102227381Y-81057858D01*
X102275000Y-81153096D01*
X102370238Y-81248334D01*
X102560714Y-81295953D01*
X102894048Y-81295953D01*
X103084524Y-81248334D01*
X103179762Y-81153096D01*
X103227381Y-81057858D01*
X103227381Y-80867381D01*
X103227381Y-82248334D02*
X103227381Y-81676905D01*
X103227381Y-81962619D02*
X102227381Y-81962619D01*
X102370238Y-81867381D01*
X102465476Y-81772143D01*
X102513095Y-81676905D01*
X102655952Y-82819762D02*
X102608333Y-82724524D01*
X102560714Y-82676905D01*
X102465476Y-82629286D01*
X102417857Y-82629286D01*
X102322619Y-82676905D01*
X102275000Y-82724524D01*
X102227381Y-82819762D01*
X102227381Y-83010239D01*
X102275000Y-83105477D01*
X102322619Y-83153096D01*
X102417857Y-83200715D01*
X102465476Y-83200715D01*
X102560714Y-83153096D01*
X102608333Y-83105477D01*
X102655952Y-83010239D01*
X102655952Y-82819762D01*
X102703571Y-82724524D01*
X102751190Y-82676905D01*
X102846429Y-82629286D01*
X103036905Y-82629286D01*
X103132143Y-82676905D01*
X103179762Y-82724524D01*
X103227381Y-82819762D01*
X103227381Y-83010239D01*
X103179762Y-83105477D01*
X103132143Y-83153096D01*
X103036905Y-83200715D01*
X102846429Y-83200715D01*
X102751190Y-83153096D01*
X102703571Y-83105477D01*
X102655952Y-83010239D01*
X103322619Y-88963572D02*
X103275000Y-88868334D01*
X103179762Y-88773096D01*
X103036905Y-88630239D01*
X102989286Y-88535000D01*
X102989286Y-88439762D01*
X103227381Y-88487381D02*
X103179762Y-88392143D01*
X103084524Y-88296905D01*
X102894048Y-88249286D01*
X102560714Y-88249286D01*
X102370238Y-88296905D01*
X102275000Y-88392143D01*
X102227381Y-88487381D01*
X102227381Y-88677858D01*
X102275000Y-88773096D01*
X102370238Y-88868334D01*
X102560714Y-88915953D01*
X102894048Y-88915953D01*
X103084524Y-88868334D01*
X103179762Y-88773096D01*
X103227381Y-88677858D01*
X103227381Y-88487381D01*
X103227381Y-89868334D02*
X103227381Y-89296905D01*
X103227381Y-89582619D02*
X102227381Y-89582619D01*
X102370238Y-89487381D01*
X102465476Y-89392143D01*
X102513095Y-89296905D01*
X102227381Y-90201667D02*
X102227381Y-90868334D01*
X103227381Y-90439762D01*
X93162619Y-68643572D02*
X93115000Y-68548334D01*
X93019762Y-68453096D01*
X92876905Y-68310239D01*
X92829286Y-68215000D01*
X92829286Y-68119762D01*
X93067381Y-68167381D02*
X93019762Y-68072143D01*
X92924524Y-67976905D01*
X92734048Y-67929286D01*
X92400714Y-67929286D01*
X92210238Y-67976905D01*
X92115000Y-68072143D01*
X92067381Y-68167381D01*
X92067381Y-68357858D01*
X92115000Y-68453096D01*
X92210238Y-68548334D01*
X92400714Y-68595953D01*
X92734048Y-68595953D01*
X92924524Y-68548334D01*
X93019762Y-68453096D01*
X93067381Y-68357858D01*
X93067381Y-68167381D01*
X93067381Y-69548334D02*
X93067381Y-68976905D01*
X93067381Y-69262619D02*
X92067381Y-69262619D01*
X92210238Y-69167381D01*
X92305476Y-69072143D01*
X92353095Y-68976905D01*
X92162619Y-69929286D02*
X92115000Y-69976905D01*
X92067381Y-70072143D01*
X92067381Y-70310239D01*
X92115000Y-70405477D01*
X92162619Y-70453096D01*
X92257857Y-70500715D01*
X92353095Y-70500715D01*
X92495952Y-70453096D01*
X93067381Y-69881667D01*
X93067381Y-70500715D01*
X93162619Y-76263572D02*
X93115000Y-76168334D01*
X93019762Y-76073096D01*
X92876905Y-75930239D01*
X92829286Y-75835000D01*
X92829286Y-75739762D01*
X93067381Y-75787381D02*
X93019762Y-75692143D01*
X92924524Y-75596905D01*
X92734048Y-75549286D01*
X92400714Y-75549286D01*
X92210238Y-75596905D01*
X92115000Y-75692143D01*
X92067381Y-75787381D01*
X92067381Y-75977858D01*
X92115000Y-76073096D01*
X92210238Y-76168334D01*
X92400714Y-76215953D01*
X92734048Y-76215953D01*
X92924524Y-76168334D01*
X93019762Y-76073096D01*
X93067381Y-75977858D01*
X93067381Y-75787381D01*
X93067381Y-77168334D02*
X93067381Y-76596905D01*
X93067381Y-76882619D02*
X92067381Y-76882619D01*
X92210238Y-76787381D01*
X92305476Y-76692143D01*
X92353095Y-76596905D01*
X93067381Y-78120715D02*
X93067381Y-77549286D01*
X93067381Y-77835000D02*
X92067381Y-77835000D01*
X92210238Y-77739762D01*
X92305476Y-77644524D01*
X92353095Y-77549286D01*
X93162619Y-83883572D02*
X93115000Y-83788334D01*
X93019762Y-83693096D01*
X92876905Y-83550239D01*
X92829286Y-83455000D01*
X92829286Y-83359762D01*
X93067381Y-83407381D02*
X93019762Y-83312143D01*
X92924524Y-83216905D01*
X92734048Y-83169286D01*
X92400714Y-83169286D01*
X92210238Y-83216905D01*
X92115000Y-83312143D01*
X92067381Y-83407381D01*
X92067381Y-83597858D01*
X92115000Y-83693096D01*
X92210238Y-83788334D01*
X92400714Y-83835953D01*
X92734048Y-83835953D01*
X92924524Y-83788334D01*
X93019762Y-83693096D01*
X93067381Y-83597858D01*
X93067381Y-83407381D01*
X93067381Y-84788334D02*
X93067381Y-84216905D01*
X93067381Y-84502619D02*
X92067381Y-84502619D01*
X92210238Y-84407381D01*
X92305476Y-84312143D01*
X92353095Y-84216905D01*
X92067381Y-85407381D02*
X92067381Y-85502620D01*
X92115000Y-85597858D01*
X92162619Y-85645477D01*
X92257857Y-85693096D01*
X92448333Y-85740715D01*
X92686429Y-85740715D01*
X92876905Y-85693096D01*
X92972143Y-85645477D01*
X93019762Y-85597858D01*
X93067381Y-85502620D01*
X93067381Y-85407381D01*
X93019762Y-85312143D01*
X92972143Y-85264524D01*
X92876905Y-85216905D01*
X92686429Y-85169286D01*
X92448333Y-85169286D01*
X92257857Y-85216905D01*
X92162619Y-85264524D01*
X92115000Y-85312143D01*
X92067381Y-85407381D01*
X93162619Y-91979762D02*
X93115000Y-91884524D01*
X93019762Y-91789286D01*
X92876905Y-91646429D01*
X92829286Y-91551190D01*
X92829286Y-91455952D01*
X93067381Y-91503571D02*
X93019762Y-91408333D01*
X92924524Y-91313095D01*
X92734048Y-91265476D01*
X92400714Y-91265476D01*
X92210238Y-91313095D01*
X92115000Y-91408333D01*
X92067381Y-91503571D01*
X92067381Y-91694048D01*
X92115000Y-91789286D01*
X92210238Y-91884524D01*
X92400714Y-91932143D01*
X92734048Y-91932143D01*
X92924524Y-91884524D01*
X93019762Y-91789286D01*
X93067381Y-91694048D01*
X93067381Y-91503571D01*
X93067381Y-92408333D02*
X93067381Y-92598809D01*
X93019762Y-92694048D01*
X92972143Y-92741667D01*
X92829286Y-92836905D01*
X92638810Y-92884524D01*
X92257857Y-92884524D01*
X92162619Y-92836905D01*
X92115000Y-92789286D01*
X92067381Y-92694048D01*
X92067381Y-92503571D01*
X92115000Y-92408333D01*
X92162619Y-92360714D01*
X92257857Y-92313095D01*
X92495952Y-92313095D01*
X92591190Y-92360714D01*
X92638810Y-92408333D01*
X92686429Y-92503571D01*
X92686429Y-92694048D01*
X92638810Y-92789286D01*
X92591190Y-92836905D01*
X92495952Y-92884524D01*
X114117619Y-66579762D02*
X114070000Y-66484524D01*
X113974762Y-66389286D01*
X113831905Y-66246429D01*
X113784286Y-66151190D01*
X113784286Y-66055952D01*
X114022381Y-66103571D02*
X113974762Y-66008333D01*
X113879524Y-65913095D01*
X113689048Y-65865476D01*
X113355714Y-65865476D01*
X113165238Y-65913095D01*
X113070000Y-66008333D01*
X113022381Y-66103571D01*
X113022381Y-66294048D01*
X113070000Y-66389286D01*
X113165238Y-66484524D01*
X113355714Y-66532143D01*
X113689048Y-66532143D01*
X113879524Y-66484524D01*
X113974762Y-66389286D01*
X114022381Y-66294048D01*
X114022381Y-66103571D01*
X113355714Y-67389286D02*
X114022381Y-67389286D01*
X112974762Y-67151190D02*
X113689048Y-66913095D01*
X113689048Y-67532143D01*
X114117619Y-74199762D02*
X114070000Y-74104524D01*
X113974762Y-74009286D01*
X113831905Y-73866429D01*
X113784286Y-73771190D01*
X113784286Y-73675952D01*
X114022381Y-73723571D02*
X113974762Y-73628333D01*
X113879524Y-73533095D01*
X113689048Y-73485476D01*
X113355714Y-73485476D01*
X113165238Y-73533095D01*
X113070000Y-73628333D01*
X113022381Y-73723571D01*
X113022381Y-73914048D01*
X113070000Y-74009286D01*
X113165238Y-74104524D01*
X113355714Y-74152143D01*
X113689048Y-74152143D01*
X113879524Y-74104524D01*
X113974762Y-74009286D01*
X114022381Y-73914048D01*
X114022381Y-73723571D01*
X113022381Y-74485476D02*
X113022381Y-75104524D01*
X113403333Y-74771190D01*
X113403333Y-74914048D01*
X113450952Y-75009286D01*
X113498571Y-75056905D01*
X113593810Y-75104524D01*
X113831905Y-75104524D01*
X113927143Y-75056905D01*
X113974762Y-75009286D01*
X114022381Y-74914048D01*
X114022381Y-74628333D01*
X113974762Y-74533095D01*
X113927143Y-74485476D01*
X114117619Y-81819762D02*
X114070000Y-81724524D01*
X113974762Y-81629286D01*
X113831905Y-81486429D01*
X113784286Y-81391190D01*
X113784286Y-81295952D01*
X114022381Y-81343571D02*
X113974762Y-81248333D01*
X113879524Y-81153095D01*
X113689048Y-81105476D01*
X113355714Y-81105476D01*
X113165238Y-81153095D01*
X113070000Y-81248333D01*
X113022381Y-81343571D01*
X113022381Y-81534048D01*
X113070000Y-81629286D01*
X113165238Y-81724524D01*
X113355714Y-81772143D01*
X113689048Y-81772143D01*
X113879524Y-81724524D01*
X113974762Y-81629286D01*
X114022381Y-81534048D01*
X114022381Y-81343571D01*
X113117619Y-82153095D02*
X113070000Y-82200714D01*
X113022381Y-82295952D01*
X113022381Y-82534048D01*
X113070000Y-82629286D01*
X113117619Y-82676905D01*
X113212857Y-82724524D01*
X113308095Y-82724524D01*
X113450952Y-82676905D01*
X114022381Y-82105476D01*
X114022381Y-82724524D01*
X114117619Y-89439762D02*
X114070000Y-89344524D01*
X113974762Y-89249286D01*
X113831905Y-89106429D01*
X113784286Y-89011190D01*
X113784286Y-88915952D01*
X114022381Y-88963571D02*
X113974762Y-88868333D01*
X113879524Y-88773095D01*
X113689048Y-88725476D01*
X113355714Y-88725476D01*
X113165238Y-88773095D01*
X113070000Y-88868333D01*
X113022381Y-88963571D01*
X113022381Y-89154048D01*
X113070000Y-89249286D01*
X113165238Y-89344524D01*
X113355714Y-89392143D01*
X113689048Y-89392143D01*
X113879524Y-89344524D01*
X113974762Y-89249286D01*
X114022381Y-89154048D01*
X114022381Y-88963571D01*
X114022381Y-90344524D02*
X114022381Y-89773095D01*
X114022381Y-90058809D02*
X113022381Y-90058809D01*
X113165238Y-89963571D01*
X113260476Y-89868333D01*
X113308095Y-89773095D01*
M02*
