M48
;DRILL file {KiCad 4.0.7} date Tuesday, October 31, 2017 'AMt' 08:43:56 AM
;FORMAT={-:-/ absolute / inch / decimal}
FMAT,2
INCH,TZ
T1C0.010
T2C0.040
T3C0.047
T4C0.118
%
G90
G05
M72
T1
X3.7Y-2.56
X3.7Y-2.86
X3.7Y-3.16
X3.7Y-3.46
X4.1Y-2.46
X4.1Y-2.76
X4.1Y-3.06
X4.1Y-3.36
X4.49Y-2.66
X4.49Y-2.96
X4.49Y-3.26
X4.49Y-3.56
T2
X3.5Y-2.15
X3.5Y-2.25
X3.6Y-2.15
X3.6Y-2.25
X3.7Y-2.15
X3.7Y-2.25
X3.8Y-2.15
X3.8Y-2.25
X3.9Y-2.15
X3.9Y-2.25
X4.Y-2.15
X4.Y-2.25
X4.1Y-2.15
X4.1Y-2.25
X4.2Y-2.15
X4.2Y-2.25
X4.3Y-2.15
X4.3Y-2.25
X4.4Y-2.15
X4.4Y-2.25
X4.5Y-2.15
X4.5Y-2.25
X4.6Y-2.15
X4.6Y-2.25
X4.7Y-2.15
X4.7Y-2.25
X4.8Y-2.15
X4.8Y-2.25
X4.9Y-2.15
X4.9Y-2.25
X5.Y-2.15
X5.Y-2.25
X5.1Y-2.15
X5.1Y-2.25
X5.2Y-2.15
X5.2Y-2.25
X5.3Y-2.15
X5.3Y-2.25
X5.4Y-2.15
X5.4Y-2.25
T3
X3.375Y-2.5
X3.375Y-2.6
X3.375Y-2.7
X3.375Y-2.8
X3.375Y-2.9
X3.375Y-3.
X3.375Y-3.1
X3.375Y-3.2
X3.375Y-3.3
X3.375Y-3.4
X3.375Y-3.5
X3.375Y-3.6
X3.475Y-3.9
X3.575Y-3.9
X3.675Y-3.9
X3.775Y-3.9
X3.875Y-3.9
X3.975Y-3.9
X4.075Y-3.9
X4.175Y-3.9
X4.275Y-3.9
X4.375Y-3.9
X4.475Y-3.9
X4.575Y-3.9
X4.675Y-3.9
X4.775Y-3.9
X4.875Y-3.9
X4.975Y-3.9
X5.075Y-3.9
X5.175Y-3.9
X5.275Y-3.9
X5.375Y-3.9
T4
X5.4162Y-2.7
T4
X5.18Y-2.7G85X5.18Y-2.7
G05
X5.2981Y-2.515G85X5.2981Y-2.515
G05
T0
M30
