G04 #@! TF.FileFunction,Legend,Top*
%FSLAX46Y46*%
G04 Gerber Fmt 4.6, Leading zero omitted, Abs format (unit mm)*
G04 Created by KiCad (PCBNEW 4.0.7) date Tuesday, October 31, 2017 'AMt' 08:43:51 AM*
%MOMM*%
%LPD*%
G01*
G04 APERTURE LIST*
%ADD10C,0.100000*%
%ADD11C,0.150000*%
%ADD12C,0.120000*%
G04 APERTURE END LIST*
D10*
D11*
X84900000Y-59610000D02*
X84900000Y-51610000D01*
X140900000Y-59610000D02*
X84900000Y-59610000D01*
X140900000Y-51610000D02*
X140900000Y-59610000D01*
X84900000Y-51610000D02*
X140900000Y-51610000D01*
D12*
X106430000Y-63014000D02*
X106930000Y-63014000D01*
X106930000Y-61954000D02*
X106430000Y-61954000D01*
X106430000Y-70634000D02*
X106930000Y-70634000D01*
X106930000Y-69574000D02*
X106430000Y-69574000D01*
X106430000Y-78254000D02*
X106930000Y-78254000D01*
X106930000Y-77194000D02*
X106430000Y-77194000D01*
X106430000Y-85874000D02*
X106930000Y-85874000D01*
X106930000Y-84814000D02*
X106430000Y-84814000D01*
X96270000Y-65554000D02*
X96770000Y-65554000D01*
X96770000Y-64494000D02*
X96270000Y-64494000D01*
X96270000Y-73174000D02*
X96770000Y-73174000D01*
X96770000Y-72114000D02*
X96270000Y-72114000D01*
X96270000Y-80794000D02*
X96770000Y-80794000D01*
X96770000Y-79734000D02*
X96270000Y-79734000D01*
X96270000Y-88414000D02*
X96770000Y-88414000D01*
X96770000Y-87354000D02*
X96270000Y-87354000D01*
X100840000Y-61920000D02*
X100840000Y-62850000D01*
X100840000Y-65080000D02*
X100840000Y-64150000D01*
X100840000Y-65080000D02*
X103000000Y-65080000D01*
X100840000Y-61920000D02*
X102300000Y-61920000D01*
X100840000Y-69540000D02*
X100840000Y-70470000D01*
X100840000Y-72700000D02*
X100840000Y-71770000D01*
X100840000Y-72700000D02*
X103000000Y-72700000D01*
X100840000Y-69540000D02*
X102300000Y-69540000D01*
X100840000Y-77160000D02*
X100840000Y-78090000D01*
X100840000Y-80320000D02*
X100840000Y-79390000D01*
X100840000Y-80320000D02*
X103000000Y-80320000D01*
X100840000Y-77160000D02*
X102300000Y-77160000D01*
X100840000Y-84780000D02*
X100840000Y-85710000D01*
X100840000Y-87940000D02*
X100840000Y-87010000D01*
X100840000Y-87940000D02*
X103000000Y-87940000D01*
X100840000Y-84780000D02*
X102300000Y-84780000D01*
X90680000Y-64460000D02*
X90680000Y-65390000D01*
X90680000Y-67620000D02*
X90680000Y-66690000D01*
X90680000Y-67620000D02*
X92840000Y-67620000D01*
X90680000Y-64460000D02*
X92140000Y-64460000D01*
X90680000Y-72080000D02*
X90680000Y-73010000D01*
X90680000Y-75240000D02*
X90680000Y-74310000D01*
X90680000Y-75240000D02*
X92840000Y-75240000D01*
X90680000Y-72080000D02*
X92140000Y-72080000D01*
X90680000Y-79700000D02*
X90680000Y-80630000D01*
X90680000Y-82860000D02*
X90680000Y-81930000D01*
X90680000Y-82860000D02*
X92840000Y-82860000D01*
X90680000Y-79700000D02*
X92140000Y-79700000D01*
X90680000Y-87320000D02*
X90680000Y-88250000D01*
X90680000Y-90480000D02*
X90680000Y-89550000D01*
X90680000Y-90480000D02*
X92840000Y-90480000D01*
X90680000Y-87320000D02*
X92140000Y-87320000D01*
X111000000Y-67000000D02*
X111000000Y-67930000D01*
X111000000Y-70160000D02*
X111000000Y-69230000D01*
X111000000Y-70160000D02*
X113160000Y-70160000D01*
X111000000Y-67000000D02*
X112460000Y-67000000D01*
X111000000Y-74620000D02*
X111000000Y-75550000D01*
X111000000Y-77780000D02*
X111000000Y-76850000D01*
X111000000Y-77780000D02*
X113160000Y-77780000D01*
X111000000Y-74620000D02*
X112460000Y-74620000D01*
X111000000Y-82240000D02*
X111000000Y-83170000D01*
X111000000Y-85400000D02*
X111000000Y-84470000D01*
X111000000Y-85400000D02*
X113160000Y-85400000D01*
X111000000Y-82240000D02*
X112460000Y-82240000D01*
X111000000Y-89860000D02*
X111000000Y-90790000D01*
X111000000Y-93020000D02*
X111000000Y-92090000D01*
X111000000Y-93020000D02*
X113160000Y-93020000D01*
X111000000Y-89860000D02*
X112460000Y-89860000D01*
X82705000Y-92810000D02*
X88705000Y-92810000D01*
X88705000Y-92810000D02*
X88705000Y-62130000D01*
X88705000Y-62130000D02*
X82705000Y-62130000D01*
X82705000Y-62130000D02*
X82705000Y-92810000D01*
X88705000Y-91440000D02*
X87705000Y-91440000D01*
X87705000Y-91440000D02*
X87705000Y-86360000D01*
X87705000Y-86360000D02*
X88705000Y-86360000D01*
X87705000Y-91440000D02*
X87275000Y-91190000D01*
X87275000Y-91190000D02*
X87275000Y-86360000D01*
X87275000Y-86360000D02*
X87705000Y-86360000D01*
X88705000Y-91190000D02*
X87705000Y-91190000D01*
X88705000Y-63500000D02*
X87705000Y-63500000D01*
X87705000Y-63500000D02*
X87705000Y-68580000D01*
X87705000Y-68580000D02*
X88705000Y-68580000D01*
X87705000Y-63500000D02*
X87275000Y-63750000D01*
X87275000Y-63750000D02*
X87275000Y-68580000D01*
X87275000Y-68580000D02*
X87705000Y-68580000D01*
X88705000Y-63750000D02*
X87705000Y-63750000D01*
X82705000Y-92240000D02*
X83325000Y-92240000D01*
X83325000Y-92240000D02*
X83325000Y-90640000D01*
X83325000Y-90640000D02*
X82705000Y-90640000D01*
X82705000Y-89700000D02*
X83325000Y-89700000D01*
X83325000Y-89700000D02*
X83325000Y-88100000D01*
X83325000Y-88100000D02*
X82705000Y-88100000D01*
X82705000Y-87160000D02*
X83325000Y-87160000D01*
X83325000Y-87160000D02*
X83325000Y-85560000D01*
X83325000Y-85560000D02*
X82705000Y-85560000D01*
X82705000Y-84620000D02*
X83325000Y-84620000D01*
X83325000Y-84620000D02*
X83325000Y-83020000D01*
X83325000Y-83020000D02*
X82705000Y-83020000D01*
X82705000Y-82080000D02*
X83325000Y-82080000D01*
X83325000Y-82080000D02*
X83325000Y-80480000D01*
X83325000Y-80480000D02*
X82705000Y-80480000D01*
X82705000Y-79540000D02*
X83325000Y-79540000D01*
X83325000Y-79540000D02*
X83325000Y-77940000D01*
X83325000Y-77940000D02*
X82705000Y-77940000D01*
X82705000Y-77000000D02*
X83325000Y-77000000D01*
X83325000Y-77000000D02*
X83325000Y-75400000D01*
X83325000Y-75400000D02*
X82705000Y-75400000D01*
X82705000Y-74460000D02*
X83325000Y-74460000D01*
X83325000Y-74460000D02*
X83325000Y-72860000D01*
X83325000Y-72860000D02*
X82705000Y-72860000D01*
X82705000Y-71920000D02*
X83325000Y-71920000D01*
X83325000Y-71920000D02*
X83325000Y-70320000D01*
X83325000Y-70320000D02*
X82705000Y-70320000D01*
X82705000Y-69380000D02*
X83325000Y-69380000D01*
X83325000Y-69380000D02*
X83325000Y-67780000D01*
X83325000Y-67780000D02*
X82705000Y-67780000D01*
X82705000Y-66840000D02*
X83325000Y-66840000D01*
X83325000Y-66840000D02*
X83325000Y-65240000D01*
X83325000Y-65240000D02*
X82705000Y-65240000D01*
X82705000Y-64300000D02*
X83325000Y-64300000D01*
X83325000Y-64300000D02*
X83325000Y-62700000D01*
X83325000Y-62700000D02*
X82705000Y-62700000D01*
X86895000Y-96040000D02*
X86895000Y-102040000D01*
X86895000Y-102040000D02*
X137895000Y-102040000D01*
X137895000Y-102040000D02*
X137895000Y-96040000D01*
X137895000Y-96040000D02*
X86895000Y-96040000D01*
X88265000Y-102040000D02*
X88265000Y-101040000D01*
X88265000Y-101040000D02*
X93345000Y-101040000D01*
X93345000Y-101040000D02*
X93345000Y-102040000D01*
X88265000Y-101040000D02*
X88515000Y-100610000D01*
X88515000Y-100610000D02*
X93345000Y-100610000D01*
X93345000Y-100610000D02*
X93345000Y-101040000D01*
X88515000Y-102040000D02*
X88515000Y-101040000D01*
X126365000Y-102040000D02*
X126365000Y-101040000D01*
X126365000Y-101040000D02*
X121285000Y-101040000D01*
X121285000Y-101040000D02*
X121285000Y-102040000D01*
X126365000Y-101040000D02*
X126115000Y-100610000D01*
X126115000Y-100610000D02*
X121285000Y-100610000D01*
X121285000Y-100610000D02*
X121285000Y-101040000D01*
X126115000Y-102040000D02*
X126115000Y-101040000D01*
X87465000Y-96040000D02*
X87465000Y-96660000D01*
X87465000Y-96660000D02*
X89065000Y-96660000D01*
X89065000Y-96660000D02*
X89065000Y-96040000D01*
X90005000Y-96040000D02*
X90005000Y-96660000D01*
X90005000Y-96660000D02*
X91605000Y-96660000D01*
X91605000Y-96660000D02*
X91605000Y-96040000D01*
X92545000Y-96040000D02*
X92545000Y-96660000D01*
X92545000Y-96660000D02*
X94145000Y-96660000D01*
X94145000Y-96660000D02*
X94145000Y-96040000D01*
X95085000Y-96040000D02*
X95085000Y-96660000D01*
X95085000Y-96660000D02*
X96685000Y-96660000D01*
X96685000Y-96660000D02*
X96685000Y-96040000D01*
X97625000Y-96040000D02*
X97625000Y-96660000D01*
X97625000Y-96660000D02*
X99225000Y-96660000D01*
X99225000Y-96660000D02*
X99225000Y-96040000D01*
X100165000Y-96040000D02*
X100165000Y-96660000D01*
X100165000Y-96660000D02*
X101765000Y-96660000D01*
X101765000Y-96660000D02*
X101765000Y-96040000D01*
X102705000Y-96040000D02*
X102705000Y-96660000D01*
X102705000Y-96660000D02*
X104305000Y-96660000D01*
X104305000Y-96660000D02*
X104305000Y-96040000D01*
X105245000Y-96040000D02*
X105245000Y-96660000D01*
X105245000Y-96660000D02*
X106845000Y-96660000D01*
X106845000Y-96660000D02*
X106845000Y-96040000D01*
X107785000Y-96040000D02*
X107785000Y-96660000D01*
X107785000Y-96660000D02*
X109385000Y-96660000D01*
X109385000Y-96660000D02*
X109385000Y-96040000D01*
X110325000Y-96040000D02*
X110325000Y-96660000D01*
X110325000Y-96660000D02*
X111925000Y-96660000D01*
X111925000Y-96660000D02*
X111925000Y-96040000D01*
X112865000Y-96040000D02*
X112865000Y-96660000D01*
X112865000Y-96660000D02*
X114465000Y-96660000D01*
X114465000Y-96660000D02*
X114465000Y-96040000D01*
X115405000Y-96040000D02*
X115405000Y-96660000D01*
X115405000Y-96660000D02*
X117005000Y-96660000D01*
X117005000Y-96660000D02*
X117005000Y-96040000D01*
X117945000Y-96040000D02*
X117945000Y-96660000D01*
X117945000Y-96660000D02*
X119545000Y-96660000D01*
X119545000Y-96660000D02*
X119545000Y-96040000D01*
X120485000Y-96040000D02*
X120485000Y-96660000D01*
X120485000Y-96660000D02*
X122085000Y-96660000D01*
X122085000Y-96660000D02*
X122085000Y-96040000D01*
X123025000Y-96040000D02*
X123025000Y-96660000D01*
X123025000Y-96660000D02*
X124625000Y-96660000D01*
X124625000Y-96660000D02*
X124625000Y-96040000D01*
X125565000Y-96040000D02*
X125565000Y-96660000D01*
X125565000Y-96660000D02*
X127165000Y-96660000D01*
X127165000Y-96660000D02*
X127165000Y-96040000D01*
X136572000Y-63980000D02*
X145372000Y-63980000D01*
X145372000Y-63980000D02*
X145372000Y-73180000D01*
X130672000Y-66680000D02*
X130672000Y-63980000D01*
X130672000Y-63980000D02*
X132572000Y-63980000D01*
X145372000Y-73180000D02*
X130672000Y-73180000D01*
X130672000Y-73180000D02*
X130672000Y-70580000D01*
D11*
X83486667Y-52792381D02*
X83486667Y-53506667D01*
X83439047Y-53649524D01*
X83343809Y-53744762D01*
X83200952Y-53792381D01*
X83105714Y-53792381D01*
X84486667Y-53792381D02*
X83915238Y-53792381D01*
X84200952Y-53792381D02*
X84200952Y-52792381D01*
X84105714Y-52935238D01*
X84010476Y-53030476D01*
X83915238Y-53078095D01*
X106037143Y-64286381D02*
X105703809Y-63810190D01*
X105465714Y-64286381D02*
X105465714Y-63286381D01*
X105846667Y-63286381D01*
X105941905Y-63334000D01*
X105989524Y-63381619D01*
X106037143Y-63476857D01*
X106037143Y-63619714D01*
X105989524Y-63714952D01*
X105941905Y-63762571D01*
X105846667Y-63810190D01*
X105465714Y-63810190D01*
X106989524Y-64286381D02*
X106418095Y-64286381D01*
X106703809Y-64286381D02*
X106703809Y-63286381D01*
X106608571Y-63429238D01*
X106513333Y-63524476D01*
X106418095Y-63572095D01*
X107370476Y-63381619D02*
X107418095Y-63334000D01*
X107513333Y-63286381D01*
X107751429Y-63286381D01*
X107846667Y-63334000D01*
X107894286Y-63381619D01*
X107941905Y-63476857D01*
X107941905Y-63572095D01*
X107894286Y-63714952D01*
X107322857Y-64286381D01*
X107941905Y-64286381D01*
X106037143Y-71906381D02*
X105703809Y-71430190D01*
X105465714Y-71906381D02*
X105465714Y-70906381D01*
X105846667Y-70906381D01*
X105941905Y-70954000D01*
X105989524Y-71001619D01*
X106037143Y-71096857D01*
X106037143Y-71239714D01*
X105989524Y-71334952D01*
X105941905Y-71382571D01*
X105846667Y-71430190D01*
X105465714Y-71430190D01*
X106989524Y-71906381D02*
X106418095Y-71906381D01*
X106703809Y-71906381D02*
X106703809Y-70906381D01*
X106608571Y-71049238D01*
X106513333Y-71144476D01*
X106418095Y-71192095D01*
X107941905Y-71906381D02*
X107370476Y-71906381D01*
X107656190Y-71906381D02*
X107656190Y-70906381D01*
X107560952Y-71049238D01*
X107465714Y-71144476D01*
X107370476Y-71192095D01*
X106037143Y-79526381D02*
X105703809Y-79050190D01*
X105465714Y-79526381D02*
X105465714Y-78526381D01*
X105846667Y-78526381D01*
X105941905Y-78574000D01*
X105989524Y-78621619D01*
X106037143Y-78716857D01*
X106037143Y-78859714D01*
X105989524Y-78954952D01*
X105941905Y-79002571D01*
X105846667Y-79050190D01*
X105465714Y-79050190D01*
X106989524Y-79526381D02*
X106418095Y-79526381D01*
X106703809Y-79526381D02*
X106703809Y-78526381D01*
X106608571Y-78669238D01*
X106513333Y-78764476D01*
X106418095Y-78812095D01*
X107608571Y-78526381D02*
X107703810Y-78526381D01*
X107799048Y-78574000D01*
X107846667Y-78621619D01*
X107894286Y-78716857D01*
X107941905Y-78907333D01*
X107941905Y-79145429D01*
X107894286Y-79335905D01*
X107846667Y-79431143D01*
X107799048Y-79478762D01*
X107703810Y-79526381D01*
X107608571Y-79526381D01*
X107513333Y-79478762D01*
X107465714Y-79431143D01*
X107418095Y-79335905D01*
X107370476Y-79145429D01*
X107370476Y-78907333D01*
X107418095Y-78716857D01*
X107465714Y-78621619D01*
X107513333Y-78574000D01*
X107608571Y-78526381D01*
X106513334Y-87146381D02*
X106180000Y-86670190D01*
X105941905Y-87146381D02*
X105941905Y-86146381D01*
X106322858Y-86146381D01*
X106418096Y-86194000D01*
X106465715Y-86241619D01*
X106513334Y-86336857D01*
X106513334Y-86479714D01*
X106465715Y-86574952D01*
X106418096Y-86622571D01*
X106322858Y-86670190D01*
X105941905Y-86670190D01*
X106989524Y-87146381D02*
X107180000Y-87146381D01*
X107275239Y-87098762D01*
X107322858Y-87051143D01*
X107418096Y-86908286D01*
X107465715Y-86717810D01*
X107465715Y-86336857D01*
X107418096Y-86241619D01*
X107370477Y-86194000D01*
X107275239Y-86146381D01*
X107084762Y-86146381D01*
X106989524Y-86194000D01*
X106941905Y-86241619D01*
X106894286Y-86336857D01*
X106894286Y-86574952D01*
X106941905Y-86670190D01*
X106989524Y-86717810D01*
X107084762Y-86765429D01*
X107275239Y-86765429D01*
X107370477Y-86717810D01*
X107418096Y-86670190D01*
X107465715Y-86574952D01*
X96353334Y-66826381D02*
X96020000Y-66350190D01*
X95781905Y-66826381D02*
X95781905Y-65826381D01*
X96162858Y-65826381D01*
X96258096Y-65874000D01*
X96305715Y-65921619D01*
X96353334Y-66016857D01*
X96353334Y-66159714D01*
X96305715Y-66254952D01*
X96258096Y-66302571D01*
X96162858Y-66350190D01*
X95781905Y-66350190D01*
X96924762Y-66254952D02*
X96829524Y-66207333D01*
X96781905Y-66159714D01*
X96734286Y-66064476D01*
X96734286Y-66016857D01*
X96781905Y-65921619D01*
X96829524Y-65874000D01*
X96924762Y-65826381D01*
X97115239Y-65826381D01*
X97210477Y-65874000D01*
X97258096Y-65921619D01*
X97305715Y-66016857D01*
X97305715Y-66064476D01*
X97258096Y-66159714D01*
X97210477Y-66207333D01*
X97115239Y-66254952D01*
X96924762Y-66254952D01*
X96829524Y-66302571D01*
X96781905Y-66350190D01*
X96734286Y-66445429D01*
X96734286Y-66635905D01*
X96781905Y-66731143D01*
X96829524Y-66778762D01*
X96924762Y-66826381D01*
X97115239Y-66826381D01*
X97210477Y-66778762D01*
X97258096Y-66731143D01*
X97305715Y-66635905D01*
X97305715Y-66445429D01*
X97258096Y-66350190D01*
X97210477Y-66302571D01*
X97115239Y-66254952D01*
X96353334Y-74446381D02*
X96020000Y-73970190D01*
X95781905Y-74446381D02*
X95781905Y-73446381D01*
X96162858Y-73446381D01*
X96258096Y-73494000D01*
X96305715Y-73541619D01*
X96353334Y-73636857D01*
X96353334Y-73779714D01*
X96305715Y-73874952D01*
X96258096Y-73922571D01*
X96162858Y-73970190D01*
X95781905Y-73970190D01*
X96686667Y-73446381D02*
X97353334Y-73446381D01*
X96924762Y-74446381D01*
X96353334Y-82066381D02*
X96020000Y-81590190D01*
X95781905Y-82066381D02*
X95781905Y-81066381D01*
X96162858Y-81066381D01*
X96258096Y-81114000D01*
X96305715Y-81161619D01*
X96353334Y-81256857D01*
X96353334Y-81399714D01*
X96305715Y-81494952D01*
X96258096Y-81542571D01*
X96162858Y-81590190D01*
X95781905Y-81590190D01*
X97210477Y-81066381D02*
X97020000Y-81066381D01*
X96924762Y-81114000D01*
X96877143Y-81161619D01*
X96781905Y-81304476D01*
X96734286Y-81494952D01*
X96734286Y-81875905D01*
X96781905Y-81971143D01*
X96829524Y-82018762D01*
X96924762Y-82066381D01*
X97115239Y-82066381D01*
X97210477Y-82018762D01*
X97258096Y-81971143D01*
X97305715Y-81875905D01*
X97305715Y-81637810D01*
X97258096Y-81542571D01*
X97210477Y-81494952D01*
X97115239Y-81447333D01*
X96924762Y-81447333D01*
X96829524Y-81494952D01*
X96781905Y-81542571D01*
X96734286Y-81637810D01*
X96353334Y-89686381D02*
X96020000Y-89210190D01*
X95781905Y-89686381D02*
X95781905Y-88686381D01*
X96162858Y-88686381D01*
X96258096Y-88734000D01*
X96305715Y-88781619D01*
X96353334Y-88876857D01*
X96353334Y-89019714D01*
X96305715Y-89114952D01*
X96258096Y-89162571D01*
X96162858Y-89210190D01*
X95781905Y-89210190D01*
X97258096Y-88686381D02*
X96781905Y-88686381D01*
X96734286Y-89162571D01*
X96781905Y-89114952D01*
X96877143Y-89067333D01*
X97115239Y-89067333D01*
X97210477Y-89114952D01*
X97258096Y-89162571D01*
X97305715Y-89257810D01*
X97305715Y-89495905D01*
X97258096Y-89591143D01*
X97210477Y-89638762D01*
X97115239Y-89686381D01*
X96877143Y-89686381D01*
X96781905Y-89638762D01*
X96734286Y-89591143D01*
X101028572Y-66547619D02*
X100933334Y-66500000D01*
X100838096Y-66404762D01*
X100695239Y-66261905D01*
X100600000Y-66214286D01*
X100504762Y-66214286D01*
X100552381Y-66452381D02*
X100457143Y-66404762D01*
X100361905Y-66309524D01*
X100314286Y-66119048D01*
X100314286Y-65785714D01*
X100361905Y-65595238D01*
X100457143Y-65500000D01*
X100552381Y-65452381D01*
X100742858Y-65452381D01*
X100838096Y-65500000D01*
X100933334Y-65595238D01*
X100980953Y-65785714D01*
X100980953Y-66119048D01*
X100933334Y-66309524D01*
X100838096Y-66404762D01*
X100742858Y-66452381D01*
X100552381Y-66452381D01*
X101361905Y-65547619D02*
X101409524Y-65500000D01*
X101504762Y-65452381D01*
X101742858Y-65452381D01*
X101838096Y-65500000D01*
X101885715Y-65547619D01*
X101933334Y-65642857D01*
X101933334Y-65738095D01*
X101885715Y-65880952D01*
X101314286Y-66452381D01*
X101933334Y-66452381D01*
X102790477Y-65785714D02*
X102790477Y-66452381D01*
X102552381Y-65404762D02*
X102314286Y-66119048D01*
X102933334Y-66119048D01*
X101028572Y-74167619D02*
X100933334Y-74120000D01*
X100838096Y-74024762D01*
X100695239Y-73881905D01*
X100600000Y-73834286D01*
X100504762Y-73834286D01*
X100552381Y-74072381D02*
X100457143Y-74024762D01*
X100361905Y-73929524D01*
X100314286Y-73739048D01*
X100314286Y-73405714D01*
X100361905Y-73215238D01*
X100457143Y-73120000D01*
X100552381Y-73072381D01*
X100742858Y-73072381D01*
X100838096Y-73120000D01*
X100933334Y-73215238D01*
X100980953Y-73405714D01*
X100980953Y-73739048D01*
X100933334Y-73929524D01*
X100838096Y-74024762D01*
X100742858Y-74072381D01*
X100552381Y-74072381D01*
X101361905Y-73167619D02*
X101409524Y-73120000D01*
X101504762Y-73072381D01*
X101742858Y-73072381D01*
X101838096Y-73120000D01*
X101885715Y-73167619D01*
X101933334Y-73262857D01*
X101933334Y-73358095D01*
X101885715Y-73500952D01*
X101314286Y-74072381D01*
X101933334Y-74072381D01*
X102266667Y-73072381D02*
X102885715Y-73072381D01*
X102552381Y-73453333D01*
X102695239Y-73453333D01*
X102790477Y-73500952D01*
X102838096Y-73548571D01*
X102885715Y-73643810D01*
X102885715Y-73881905D01*
X102838096Y-73977143D01*
X102790477Y-74024762D01*
X102695239Y-74072381D01*
X102409524Y-74072381D01*
X102314286Y-74024762D01*
X102266667Y-73977143D01*
X101028572Y-81787619D02*
X100933334Y-81740000D01*
X100838096Y-81644762D01*
X100695239Y-81501905D01*
X100600000Y-81454286D01*
X100504762Y-81454286D01*
X100552381Y-81692381D02*
X100457143Y-81644762D01*
X100361905Y-81549524D01*
X100314286Y-81359048D01*
X100314286Y-81025714D01*
X100361905Y-80835238D01*
X100457143Y-80740000D01*
X100552381Y-80692381D01*
X100742858Y-80692381D01*
X100838096Y-80740000D01*
X100933334Y-80835238D01*
X100980953Y-81025714D01*
X100980953Y-81359048D01*
X100933334Y-81549524D01*
X100838096Y-81644762D01*
X100742858Y-81692381D01*
X100552381Y-81692381D01*
X101361905Y-80787619D02*
X101409524Y-80740000D01*
X101504762Y-80692381D01*
X101742858Y-80692381D01*
X101838096Y-80740000D01*
X101885715Y-80787619D01*
X101933334Y-80882857D01*
X101933334Y-80978095D01*
X101885715Y-81120952D01*
X101314286Y-81692381D01*
X101933334Y-81692381D01*
X102314286Y-80787619D02*
X102361905Y-80740000D01*
X102457143Y-80692381D01*
X102695239Y-80692381D01*
X102790477Y-80740000D01*
X102838096Y-80787619D01*
X102885715Y-80882857D01*
X102885715Y-80978095D01*
X102838096Y-81120952D01*
X102266667Y-81692381D01*
X102885715Y-81692381D01*
X101028572Y-89407619D02*
X100933334Y-89360000D01*
X100838096Y-89264762D01*
X100695239Y-89121905D01*
X100600000Y-89074286D01*
X100504762Y-89074286D01*
X100552381Y-89312381D02*
X100457143Y-89264762D01*
X100361905Y-89169524D01*
X100314286Y-88979048D01*
X100314286Y-88645714D01*
X100361905Y-88455238D01*
X100457143Y-88360000D01*
X100552381Y-88312381D01*
X100742858Y-88312381D01*
X100838096Y-88360000D01*
X100933334Y-88455238D01*
X100980953Y-88645714D01*
X100980953Y-88979048D01*
X100933334Y-89169524D01*
X100838096Y-89264762D01*
X100742858Y-89312381D01*
X100552381Y-89312381D01*
X101361905Y-88407619D02*
X101409524Y-88360000D01*
X101504762Y-88312381D01*
X101742858Y-88312381D01*
X101838096Y-88360000D01*
X101885715Y-88407619D01*
X101933334Y-88502857D01*
X101933334Y-88598095D01*
X101885715Y-88740952D01*
X101314286Y-89312381D01*
X101933334Y-89312381D01*
X102885715Y-89312381D02*
X102314286Y-89312381D01*
X102600000Y-89312381D02*
X102600000Y-88312381D01*
X102504762Y-88455238D01*
X102409524Y-88550476D01*
X102314286Y-88598095D01*
X90868572Y-69087619D02*
X90773334Y-69040000D01*
X90678096Y-68944762D01*
X90535239Y-68801905D01*
X90440000Y-68754286D01*
X90344762Y-68754286D01*
X90392381Y-68992381D02*
X90297143Y-68944762D01*
X90201905Y-68849524D01*
X90154286Y-68659048D01*
X90154286Y-68325714D01*
X90201905Y-68135238D01*
X90297143Y-68040000D01*
X90392381Y-67992381D01*
X90582858Y-67992381D01*
X90678096Y-68040000D01*
X90773334Y-68135238D01*
X90820953Y-68325714D01*
X90820953Y-68659048D01*
X90773334Y-68849524D01*
X90678096Y-68944762D01*
X90582858Y-68992381D01*
X90392381Y-68992381D01*
X91773334Y-68992381D02*
X91201905Y-68992381D01*
X91487619Y-68992381D02*
X91487619Y-67992381D01*
X91392381Y-68135238D01*
X91297143Y-68230476D01*
X91201905Y-68278095D01*
X92630477Y-67992381D02*
X92440000Y-67992381D01*
X92344762Y-68040000D01*
X92297143Y-68087619D01*
X92201905Y-68230476D01*
X92154286Y-68420952D01*
X92154286Y-68801905D01*
X92201905Y-68897143D01*
X92249524Y-68944762D01*
X92344762Y-68992381D01*
X92535239Y-68992381D01*
X92630477Y-68944762D01*
X92678096Y-68897143D01*
X92725715Y-68801905D01*
X92725715Y-68563810D01*
X92678096Y-68468571D01*
X92630477Y-68420952D01*
X92535239Y-68373333D01*
X92344762Y-68373333D01*
X92249524Y-68420952D01*
X92201905Y-68468571D01*
X92154286Y-68563810D01*
X90868572Y-76707619D02*
X90773334Y-76660000D01*
X90678096Y-76564762D01*
X90535239Y-76421905D01*
X90440000Y-76374286D01*
X90344762Y-76374286D01*
X90392381Y-76612381D02*
X90297143Y-76564762D01*
X90201905Y-76469524D01*
X90154286Y-76279048D01*
X90154286Y-75945714D01*
X90201905Y-75755238D01*
X90297143Y-75660000D01*
X90392381Y-75612381D01*
X90582858Y-75612381D01*
X90678096Y-75660000D01*
X90773334Y-75755238D01*
X90820953Y-75945714D01*
X90820953Y-76279048D01*
X90773334Y-76469524D01*
X90678096Y-76564762D01*
X90582858Y-76612381D01*
X90392381Y-76612381D01*
X91773334Y-76612381D02*
X91201905Y-76612381D01*
X91487619Y-76612381D02*
X91487619Y-75612381D01*
X91392381Y-75755238D01*
X91297143Y-75850476D01*
X91201905Y-75898095D01*
X92678096Y-75612381D02*
X92201905Y-75612381D01*
X92154286Y-76088571D01*
X92201905Y-76040952D01*
X92297143Y-75993333D01*
X92535239Y-75993333D01*
X92630477Y-76040952D01*
X92678096Y-76088571D01*
X92725715Y-76183810D01*
X92725715Y-76421905D01*
X92678096Y-76517143D01*
X92630477Y-76564762D01*
X92535239Y-76612381D01*
X92297143Y-76612381D01*
X92201905Y-76564762D01*
X92154286Y-76517143D01*
X90868572Y-84327619D02*
X90773334Y-84280000D01*
X90678096Y-84184762D01*
X90535239Y-84041905D01*
X90440000Y-83994286D01*
X90344762Y-83994286D01*
X90392381Y-84232381D02*
X90297143Y-84184762D01*
X90201905Y-84089524D01*
X90154286Y-83899048D01*
X90154286Y-83565714D01*
X90201905Y-83375238D01*
X90297143Y-83280000D01*
X90392381Y-83232381D01*
X90582858Y-83232381D01*
X90678096Y-83280000D01*
X90773334Y-83375238D01*
X90820953Y-83565714D01*
X90820953Y-83899048D01*
X90773334Y-84089524D01*
X90678096Y-84184762D01*
X90582858Y-84232381D01*
X90392381Y-84232381D01*
X91773334Y-84232381D02*
X91201905Y-84232381D01*
X91487619Y-84232381D02*
X91487619Y-83232381D01*
X91392381Y-83375238D01*
X91297143Y-83470476D01*
X91201905Y-83518095D01*
X92630477Y-83565714D02*
X92630477Y-84232381D01*
X92392381Y-83184762D02*
X92154286Y-83899048D01*
X92773334Y-83899048D01*
X90868572Y-91947619D02*
X90773334Y-91900000D01*
X90678096Y-91804762D01*
X90535239Y-91661905D01*
X90440000Y-91614286D01*
X90344762Y-91614286D01*
X90392381Y-91852381D02*
X90297143Y-91804762D01*
X90201905Y-91709524D01*
X90154286Y-91519048D01*
X90154286Y-91185714D01*
X90201905Y-90995238D01*
X90297143Y-90900000D01*
X90392381Y-90852381D01*
X90582858Y-90852381D01*
X90678096Y-90900000D01*
X90773334Y-90995238D01*
X90820953Y-91185714D01*
X90820953Y-91519048D01*
X90773334Y-91709524D01*
X90678096Y-91804762D01*
X90582858Y-91852381D01*
X90392381Y-91852381D01*
X91773334Y-91852381D02*
X91201905Y-91852381D01*
X91487619Y-91852381D02*
X91487619Y-90852381D01*
X91392381Y-90995238D01*
X91297143Y-91090476D01*
X91201905Y-91138095D01*
X92106667Y-90852381D02*
X92725715Y-90852381D01*
X92392381Y-91233333D01*
X92535239Y-91233333D01*
X92630477Y-91280952D01*
X92678096Y-91328571D01*
X92725715Y-91423810D01*
X92725715Y-91661905D01*
X92678096Y-91757143D01*
X92630477Y-91804762D01*
X92535239Y-91852381D01*
X92249524Y-91852381D01*
X92154286Y-91804762D01*
X92106667Y-91757143D01*
X111664762Y-71627619D02*
X111569524Y-71580000D01*
X111474286Y-71484762D01*
X111331429Y-71341905D01*
X111236190Y-71294286D01*
X111140952Y-71294286D01*
X111188571Y-71532381D02*
X111093333Y-71484762D01*
X110998095Y-71389524D01*
X110950476Y-71199048D01*
X110950476Y-70865714D01*
X110998095Y-70675238D01*
X111093333Y-70580000D01*
X111188571Y-70532381D01*
X111379048Y-70532381D01*
X111474286Y-70580000D01*
X111569524Y-70675238D01*
X111617143Y-70865714D01*
X111617143Y-71199048D01*
X111569524Y-71389524D01*
X111474286Y-71484762D01*
X111379048Y-71532381D01*
X111188571Y-71532381D01*
X112188571Y-70960952D02*
X112093333Y-70913333D01*
X112045714Y-70865714D01*
X111998095Y-70770476D01*
X111998095Y-70722857D01*
X112045714Y-70627619D01*
X112093333Y-70580000D01*
X112188571Y-70532381D01*
X112379048Y-70532381D01*
X112474286Y-70580000D01*
X112521905Y-70627619D01*
X112569524Y-70722857D01*
X112569524Y-70770476D01*
X112521905Y-70865714D01*
X112474286Y-70913333D01*
X112379048Y-70960952D01*
X112188571Y-70960952D01*
X112093333Y-71008571D01*
X112045714Y-71056190D01*
X111998095Y-71151429D01*
X111998095Y-71341905D01*
X112045714Y-71437143D01*
X112093333Y-71484762D01*
X112188571Y-71532381D01*
X112379048Y-71532381D01*
X112474286Y-71484762D01*
X112521905Y-71437143D01*
X112569524Y-71341905D01*
X112569524Y-71151429D01*
X112521905Y-71056190D01*
X112474286Y-71008571D01*
X112379048Y-70960952D01*
X111664762Y-79247619D02*
X111569524Y-79200000D01*
X111474286Y-79104762D01*
X111331429Y-78961905D01*
X111236190Y-78914286D01*
X111140952Y-78914286D01*
X111188571Y-79152381D02*
X111093333Y-79104762D01*
X110998095Y-79009524D01*
X110950476Y-78819048D01*
X110950476Y-78485714D01*
X110998095Y-78295238D01*
X111093333Y-78200000D01*
X111188571Y-78152381D01*
X111379048Y-78152381D01*
X111474286Y-78200000D01*
X111569524Y-78295238D01*
X111617143Y-78485714D01*
X111617143Y-78819048D01*
X111569524Y-79009524D01*
X111474286Y-79104762D01*
X111379048Y-79152381D01*
X111188571Y-79152381D01*
X111950476Y-78152381D02*
X112617143Y-78152381D01*
X112188571Y-79152381D01*
X111664762Y-86867619D02*
X111569524Y-86820000D01*
X111474286Y-86724762D01*
X111331429Y-86581905D01*
X111236190Y-86534286D01*
X111140952Y-86534286D01*
X111188571Y-86772381D02*
X111093333Y-86724762D01*
X110998095Y-86629524D01*
X110950476Y-86439048D01*
X110950476Y-86105714D01*
X110998095Y-85915238D01*
X111093333Y-85820000D01*
X111188571Y-85772381D01*
X111379048Y-85772381D01*
X111474286Y-85820000D01*
X111569524Y-85915238D01*
X111617143Y-86105714D01*
X111617143Y-86439048D01*
X111569524Y-86629524D01*
X111474286Y-86724762D01*
X111379048Y-86772381D01*
X111188571Y-86772381D01*
X112474286Y-85772381D02*
X112283809Y-85772381D01*
X112188571Y-85820000D01*
X112140952Y-85867619D01*
X112045714Y-86010476D01*
X111998095Y-86200952D01*
X111998095Y-86581905D01*
X112045714Y-86677143D01*
X112093333Y-86724762D01*
X112188571Y-86772381D01*
X112379048Y-86772381D01*
X112474286Y-86724762D01*
X112521905Y-86677143D01*
X112569524Y-86581905D01*
X112569524Y-86343810D01*
X112521905Y-86248571D01*
X112474286Y-86200952D01*
X112379048Y-86153333D01*
X112188571Y-86153333D01*
X112093333Y-86200952D01*
X112045714Y-86248571D01*
X111998095Y-86343810D01*
X111664762Y-94487619D02*
X111569524Y-94440000D01*
X111474286Y-94344762D01*
X111331429Y-94201905D01*
X111236190Y-94154286D01*
X111140952Y-94154286D01*
X111188571Y-94392381D02*
X111093333Y-94344762D01*
X110998095Y-94249524D01*
X110950476Y-94059048D01*
X110950476Y-93725714D01*
X110998095Y-93535238D01*
X111093333Y-93440000D01*
X111188571Y-93392381D01*
X111379048Y-93392381D01*
X111474286Y-93440000D01*
X111569524Y-93535238D01*
X111617143Y-93725714D01*
X111617143Y-94059048D01*
X111569524Y-94249524D01*
X111474286Y-94344762D01*
X111379048Y-94392381D01*
X111188571Y-94392381D01*
X112521905Y-93392381D02*
X112045714Y-93392381D01*
X111998095Y-93868571D01*
X112045714Y-93820952D01*
X112140952Y-93773333D01*
X112379048Y-93773333D01*
X112474286Y-93820952D01*
X112521905Y-93868571D01*
X112569524Y-93963810D01*
X112569524Y-94201905D01*
X112521905Y-94297143D01*
X112474286Y-94344762D01*
X112379048Y-94392381D01*
X112140952Y-94392381D01*
X112045714Y-94344762D01*
X111998095Y-94297143D01*
X83018381Y-94313333D02*
X83732667Y-94313333D01*
X83875524Y-94360953D01*
X83970762Y-94456191D01*
X84018381Y-94599048D01*
X84018381Y-94694286D01*
X83351714Y-93408571D02*
X84018381Y-93408571D01*
X82970762Y-93646667D02*
X83685048Y-93884762D01*
X83685048Y-93265714D01*
X88931667Y-94012381D02*
X88931667Y-94726667D01*
X88884047Y-94869524D01*
X88788809Y-94964762D01*
X88645952Y-95012381D01*
X88550714Y-95012381D01*
X89312619Y-94012381D02*
X89931667Y-94012381D01*
X89598333Y-94393333D01*
X89741191Y-94393333D01*
X89836429Y-94440952D01*
X89884048Y-94488571D01*
X89931667Y-94583810D01*
X89931667Y-94821905D01*
X89884048Y-94917143D01*
X89836429Y-94964762D01*
X89741191Y-95012381D01*
X89455476Y-95012381D01*
X89360238Y-94964762D01*
X89312619Y-94917143D01*
X139688667Y-62282381D02*
X139688667Y-62996667D01*
X139641047Y-63139524D01*
X139545809Y-63234762D01*
X139402952Y-63282381D01*
X139307714Y-63282381D01*
X140117238Y-62377619D02*
X140164857Y-62330000D01*
X140260095Y-62282381D01*
X140498191Y-62282381D01*
X140593429Y-62330000D01*
X140641048Y-62377619D01*
X140688667Y-62472857D01*
X140688667Y-62568095D01*
X140641048Y-62710952D01*
X140069619Y-63282381D01*
X140688667Y-63282381D01*
M02*
